<svg id="visual" viewBox="0 0 900 75" width="900" height="75" xmlns="http://www.w3.org/2000/svg" xmlns:xlink="http://www.w3.org/1999/xlink" version="1.1"><rect x="0" y="0" width="900" height="75" fill="#ec4899"></rect><path d="M0 61L10.7 57.7C21.3 54.3 42.7 47.7 64.2 46.3C85.7 45 107.3 49 128.8 48.3C150.3 47.7 171.7 42.3 193 43.3C214.3 44.3 235.7 51.7 257 52C278.3 52.3 299.7 45.7 321.2 42.5C342.7 39.3 364.3 39.7 385.8 41.7C407.3 43.7 428.7 47.3 450 49.3C471.3 51.3 492.7 51.7 514.2 51C535.7 50.3 557.3 48.7 578.8 47.3C600.3 46 621.7 45 643 44.2C664.3 43.3 685.7 42.7 707 42.5C728.3 42.3 749.7 42.7 771.2 42.7C792.7 42.7 814.3 42.3 835.8 42.2C857.3 42 878.7 42 889.3 42L900 42L900 0L889.3 0C878.7 0 857.3 0 835.8 0C814.3 0 792.7 0 771.2 0C749.7 0 728.3 0 707 0C685.7 0 664.3 0 643 0C621.7 0 600.3 0 578.8 0C557.3 0 535.7 0 514.2 0C492.7 0 471.3 0 450 0C428.7 0 407.3 0 385.8 0C364.3 0 342.7 0 321.2 0C299.7 0 278.3 0 257 0C235.7 0 214.3 0 193 0C171.7 0 150.3 0 128.8 0C107.3 0 85.7 0 64.2 0C42.7 0 21.3 0 10.7 0L0 0Z" fill="#ec4899"></path><path d="M0 42L10.7 43.7C21.3 45.3 42.7 48.7 64.2 50.5C85.7 52.3 107.3 52.7 128.8 50.7C150.3 48.7 171.7 44.3 193 42C214.3 39.7 235.7 39.3 257 41.2C278.3 43 299.7 47 321.2 49.7C342.7 52.3 364.3 53.7 385.8 52.8C407.3 52 428.7 49 450 46.7C471.3 44.3 492.7 42.7 514.2 44C535.7 45.3 557.3 49.7 578.8 50.7C600.3 51.7 621.7 49.3 643 47.8C664.3 46.3 685.7 45.7 707 44.2C728.3 42.7 749.7 40.3 771.2 39C792.7 37.7 814.3 37.3 835.8 40.3C857.3 43.3 878.7 49.7 889.3 52.8L900 56L900 0L889.3 0C878.7 0 857.3 0 835.8 0C814.3 0 792.7 0 771.2 0C749.7 0 728.3 0 707 0C685.7 0 664.3 0 643 0C621.7 0 600.3 0 578.8 0C557.3 0 535.7 0 514.2 0C492.7 0 471.3 0 450 0C428.7 0 407.3 0 385.8 0C364.3 0 342.7 0 321.2 0C299.7 0 278.3 0 257 0C235.7 0 214.3 0 193 0C171.7 0 150.3 0 128.8 0C107.3 0 85.7 0 64.2 0C42.7 0 21.3 0 10.7 0L0 0Z" fill="#e73ca3"></path><path d="M0 26L10.7 27.5C21.3 29 42.7 32 64.2 33.7C85.7 35.3 107.3 35.7 128.8 36.5C150.3 37.3 171.7 38.7 193 38.7C214.3 38.7 235.7 37.3 257 35.5C278.3 33.7 299.7 31.3 321.2 30C342.7 28.7 364.3 28.3 385.8 28.7C407.3 29 428.7 30 450 31.3C471.3 32.7 492.7 34.3 514.2 36.8C535.7 39.3 557.3 42.7 578.8 44.3C600.3 46 621.7 46 643 44.3C664.3 42.7 685.7 39.3 707 37.2C728.3 35 749.7 34 771.2 34C792.7 34 814.3 35 835.8 37.2C857.3 39.3 878.7 42.7 889.3 44.3L900 46L900 0L889.3 0C878.7 0 857.3 0 835.8 0C814.3 0 792.7 0 771.2 0C749.7 0 728.3 0 707 0C685.7 0 664.3 0 643 0C621.7 0 600.3 0 578.8 0C557.3 0 535.7 0 514.2 0C492.7 0 471.3 0 450 0C428.7 0 407.3 0 385.8 0C364.3 0 342.7 0 321.2 0C299.7 0 278.3 0 257 0C235.7 0 214.3 0 193 0C171.7 0 150.3 0 128.8 0C107.3 0 85.7 0 64.2 0C42.7 0 21.3 0 10.7 0L0 0Z" fill="#df31b0"></path><path d="M0 26L10.7 25.5C21.3 25 42.7 24 64.2 23.5C85.7 23 107.3 23 128.8 22.7C150.3 22.3 171.7 21.7 193 21.5C214.3 21.3 235.7 21.7 257 24.2C278.3 26.7 299.7 31.3 321.2 31.3C342.7 31.3 364.3 26.7 385.8 25C407.3 23.3 428.7 24.7 450 26.7C471.3 28.7 492.7 31.3 514.2 33.3C535.7 35.3 557.3 36.7 578.8 36.7C600.3 36.7 621.7 35.3 643 32.7C664.3 30 685.7 26 707 23.7C728.3 21.3 749.7 20.7 771.2 22.7C792.7 24.7 814.3 29.3 835.8 31.8C857.3 34.3 878.7 34.7 889.3 34.8L900 35L900 0L889.3 0C878.7 0 857.3 0 835.8 0C814.3 0 792.7 0 771.2 0C749.7 0 728.3 0 707 0C685.7 0 664.3 0 643 0C621.7 0 600.3 0 578.8 0C557.3 0 535.7 0 514.2 0C492.7 0 471.3 0 450 0C428.7 0 407.3 0 385.8 0C364.3 0 342.7 0 321.2 0C299.7 0 278.3 0 257 0C235.7 0 214.3 0 193 0C171.7 0 150.3 0 128.8 0C107.3 0 85.7 0 64.2 0C42.7 0 21.3 0 10.7 0L0 0Z" fill="#d429bd"></path><path d="M0 17L10.7 16.7C21.3 16.3 42.7 15.7 64.2 15.2C85.7 14.7 107.3 14.3 128.8 15.7C150.3 17 171.7 20 193 21.7C214.3 23.3 235.7 23.7 257 22.7C278.3 21.7 299.7 19.3 321.2 20.2C342.7 21 364.3 25 385.8 25.8C407.3 26.7 428.7 24.3 450 24C471.3 23.7 492.7 25.3 514.2 24.5C535.7 23.7 557.3 20.3 578.8 20.2C600.3 20 621.7 23 643 24.3C664.3 25.7 685.7 25.3 707 25C728.3 24.7 749.7 24.3 771.2 23.7C792.7 23 814.3 22 835.8 21.5C857.3 21 878.7 21 889.3 21L900 21L900 0L889.3 0C878.7 0 857.3 0 835.8 0C814.3 0 792.7 0 771.2 0C749.7 0 728.3 0 707 0C685.7 0 664.3 0 643 0C621.7 0 600.3 0 578.8 0C557.3 0 535.7 0 514.2 0C492.7 0 471.3 0 450 0C428.7 0 407.3 0 385.8 0C364.3 0 342.7 0 321.2 0C299.7 0 278.3 0 257 0C235.7 0 214.3 0 193 0C171.7 0 150.3 0 128.8 0C107.3 0 85.7 0 64.2 0C42.7 0 21.3 0 10.7 0L0 0Z" fill="#c427cb"></path><path d="M0 20L10.7 19C21.3 18 42.7 16 64.2 14.7C85.7 13.3 107.3 12.7 128.8 13C150.3 13.3 171.7 14.7 193 15.3C214.3 16 235.7 16 257 15.5C278.3 15 299.7 14 321.2 12.8C342.7 11.7 364.3 10.3 385.8 11C407.3 11.7 428.7 14.3 450 15.7C471.3 17 492.7 17 514.2 15.8C535.7 14.7 557.3 12.3 578.8 11C600.3 9.7 621.7 9.3 643 9.7C664.3 10 685.7 11 707 12.2C728.3 13.3 749.7 14.7 771.2 15.2C792.7 15.7 814.3 15.3 835.8 15C857.3 14.7 878.7 14.3 889.3 14.2L900 14L900 0L889.3 0C878.7 0 857.3 0 835.8 0C814.3 0 792.7 0 771.2 0C749.7 0 728.3 0 707 0C685.7 0 664.3 0 643 0C621.7 0 600.3 0 578.8 0C557.3 0 535.7 0 514.2 0C492.7 0 471.3 0 450 0C428.7 0 407.3 0 385.8 0C364.3 0 342.7 0 321.2 0C299.7 0 278.3 0 257 0C235.7 0 214.3 0 193 0C171.7 0 150.3 0 128.8 0C107.3 0 85.7 0 64.2 0C42.7 0 21.3 0 10.7 0L0 0Z" fill="#b02bdb"></path><path d="M0 9L10.7 8.7C21.3 8.3 42.7 7.7 64.2 8.5C85.7 9.3 107.3 11.7 128.8 11.3C150.3 11 171.7 8 193 7.3C214.3 6.7 235.7 8.3 257 8.3C278.3 8.3 299.7 6.7 321.2 6.7C342.7 6.7 364.3 8.3 385.8 9.2C407.3 10 428.7 10 450 10.5C471.3 11 492.7 12 514.2 11.3C535.7 10.7 557.3 8.3 578.8 8C600.3 7.7 621.7 9.3 643 10.2C664.3 11 685.7 11 707 10C728.3 9 749.7 7 771.2 6C792.7 5 814.3 5 835.8 6.3C857.3 7.7 878.7 10.3 889.3 11.7L900 13L900 0L889.3 0C878.7 0 857.3 0 835.8 0C814.3 0 792.7 0 771.2 0C749.7 0 728.3 0 707 0C685.7 0 664.3 0 643 0C621.7 0 600.3 0 578.8 0C557.3 0 535.7 0 514.2 0C492.7 0 471.3 0 450 0C428.7 0 407.3 0 385.8 0C364.3 0 342.7 0 321.2 0C299.7 0 278.3 0 257 0C235.7 0 214.3 0 193 0C171.7 0 150.3 0 128.8 0C107.3 0 85.7 0 64.2 0C42.7 0 21.3 0 10.7 0L0 0Z" fill="#9333ea"></path></svg>