<svg id="visual" viewBox="0 0 900 75" width="900" height="75" xmlns="http://www.w3.org/2000/svg" xmlns:xlink="http://www.w3.org/1999/xlink" version="1.1"><path d="M0 10L9.3 15.3C18.7 20.7 37.3 31.3 56.2 34C75 36.7 94 31.3 112.8 28.5C131.7 25.7 150.3 25.3 169 23.7C187.7 22 206.3 19 225 22.3C243.7 25.7 262.3 35.3 281.2 38.5C300 41.7 319 38.3 337.8 32.3C356.7 26.3 375.3 17.7 394 20.7C412.7 23.7 431.3 38.3 450 45.3C468.7 52.3 487.3 51.7 506.2 47.8C525 44 544 37 562.8 30.2C581.7 23.3 600.3 16.7 619 16.2C637.7 15.7 656.3 21.3 675 27.2C693.7 33 712.3 39 731.2 37.7C750 36.3 769 27.7 787.8 23.5C806.7 19.3 825.3 19.7 844 22C862.7 24.3 881.3 28.7 890.7 30.8L900 33L900 76L890.7 76C881.3 76 862.7 76 844 76C825.3 76 806.7 76 787.8 76C769 76 750 76 731.2 76C712.3 76 693.7 76 675 76C656.3 76 637.7 76 619 76C600.3 76 581.7 76 562.8 76C544 76 525 76 506.2 76C487.3 76 468.7 76 450 76C431.3 76 412.7 76 394 76C375.3 76 356.7 76 337.8 76C319 76 300 76 281.2 76C262.3 76 243.7 76 225 76C206.3 76 187.7 76 169 76C150.3 76 131.7 76 112.8 76C94 76 75 76 56.2 76C37.3 76 18.7 76 9.3 76L0 76Z" fill="#9333ea"></path><path d="M0 43L9.3 40C18.7 37 37.3 31 56.2 31.3C75 31.7 94 38.3 112.8 40.5C131.7 42.7 150.3 40.3 169 42.2C187.7 44 206.3 50 225 49.8C243.7 49.7 262.3 43.3 281.2 41C300 38.7 319 40.3 337.8 43.3C356.7 46.3 375.3 50.7 394 48.7C412.7 46.7 431.3 38.3 450 37.5C468.7 36.7 487.3 43.3 506.2 48C525 52.7 544 55.3 562.8 51.7C581.7 48 600.3 38 619 34.7C637.7 31.3 656.3 34.7 675 39.8C693.7 45 712.3 52 731.2 50.7C750 49.3 769 39.7 787.8 34.5C806.7 29.3 825.3 28.7 844 31.3C862.7 34 881.3 40 890.7 43L900 46L900 76L890.7 76C881.3 76 862.7 76 844 76C825.3 76 806.7 76 787.8 76C769 76 750 76 731.2 76C712.3 76 693.7 76 675 76C656.3 76 637.7 76 619 76C600.3 76 581.7 76 562.8 76C544 76 525 76 506.2 76C487.3 76 468.7 76 450 76C431.3 76 412.7 76 394 76C375.3 76 356.7 76 337.8 76C319 76 300 76 281.2 76C262.3 76 243.7 76 225 76C206.3 76 187.7 76 169 76C150.3 76 131.7 76 112.8 76C94 76 75 76 56.2 76C37.3 76 18.7 76 9.3 76L0 76Z" fill="#c427cb"></path><path d="M0 33L9.3 37.2C18.7 41.3 37.3 49.7 56.2 50.8C75 52 94 46 112.8 44.7C131.7 43.3 150.3 46.7 169 48.8C187.7 51 206.3 52 225 48.8C243.7 45.7 262.3 38.3 281.2 37C300 35.7 319 40.3 337.8 44C356.7 47.7 375.3 50.3 394 51.3C412.7 52.3 431.3 51.7 450 48.7C468.7 45.7 487.3 40.3 506.2 38.3C525 36.3 544 37.7 562.8 38.7C581.7 39.7 600.3 40.3 619 40.3C637.7 40.3 656.3 39.7 675 39.3C693.7 39 712.3 39 731.2 41.5C750 44 769 49 787.8 52.3C806.7 55.7 825.3 57.3 844 54.2C862.7 51 881.3 43 890.7 39L900 35L900 76L890.7 76C881.3 76 862.7 76 844 76C825.3 76 806.7 76 787.8 76C769 76 750 76 731.2 76C712.3 76 693.7 76 675 76C656.3 76 637.7 76 619 76C600.3 76 581.7 76 562.8 76C544 76 525 76 506.2 76C487.3 76 468.7 76 450 76C431.3 76 412.7 76 394 76C375.3 76 356.7 76 337.8 76C319 76 300 76 281.2 76C262.3 76 243.7 76 225 76C206.3 76 187.7 76 169 76C150.3 76 131.7 76 112.8 76C94 76 75 76 56.2 76C37.3 76 18.7 76 9.3 76L0 76Z" fill="#df31b0"></path><path d="M0 65L9.3 64C18.7 63 37.3 61 56.2 57.8C75 54.7 94 50.3 112.8 51.7C131.7 53 150.3 60 169 63.5C187.7 67 206.3 67 225 67.8C243.7 68.7 262.3 70.3 281.2 69.5C300 68.7 319 65.3 337.8 63C356.7 60.7 375.3 59.3 394 56.7C412.7 54 431.3 50 450 52C468.7 54 487.3 62 506.2 65.8C525 69.7 544 69.3 562.8 66.7C581.7 64 600.3 59 619 55.5C637.7 52 656.3 50 675 51.7C693.7 53.3 712.3 58.7 731.2 62C750 65.3 769 66.7 787.8 65.7C806.7 64.7 825.3 61.3 844 58.8C862.7 56.3 881.3 54.7 890.7 53.8L900 53L900 76L890.7 76C881.3 76 862.7 76 844 76C825.3 76 806.7 76 787.8 76C769 76 750 76 731.2 76C712.3 76 693.7 76 675 76C656.3 76 637.7 76 619 76C600.3 76 581.7 76 562.8 76C544 76 525 76 506.2 76C487.3 76 468.7 76 450 76C431.3 76 412.7 76 394 76C375.3 76 356.7 76 337.8 76C319 76 300 76 281.2 76C262.3 76 243.7 76 225 76C206.3 76 187.7 76 169 76C150.3 76 131.7 76 112.8 76C94 76 75 76 56.2 76C37.3 76 18.7 76 9.3 76L0 76Z" fill="#ec4899"></path></svg>