<svg id="visual" viewBox="0 0 900 150" width="900" height="150" xmlns="http://www.w3.org/2000/svg" xmlns:xlink="http://www.w3.org/1999/xlink" version="1.1"><rect x="0" y="0" width="900" height="150" fill="#ffffff"></rect><path d="M0 41L16.7 37.2C33.3 33.3 66.7 25.7 100 25C133.3 24.3 166.7 30.7 200 30.8C233.3 31 266.7 25 300 22.3C333.3 19.7 366.7 20.3 400 23C433.3 25.7 466.7 30.3 500 30.5C533.3 30.7 566.7 26.3 600 24C633.3 21.7 666.7 21.3 700 23.8C733.3 26.3 766.7 31.7 800 31.3C833.3 31 866.7 25 883.3 22L900 19L900 151L883.3 151C866.7 151 833.3 151 800 151C766.7 151 733.3 151 700 151C666.7 151 633.3 151 600 151C566.7 151 533.3 151 500 151C466.7 151 433.3 151 400 151C366.7 151 333.3 151 300 151C266.7 151 233.3 151 200 151C166.7 151 133.3 151 100 151C66.7 151 33.3 151 16.7 151L0 151Z" fill="#fde047"></path><path d="M0 39L16.7 41.3C33.3 43.7 66.7 48.3 100 50.2C133.3 52 166.7 51 200 49.5C233.3 48 266.7 46 300 48.2C333.3 50.3 366.7 56.7 400 56.3C433.3 56 466.7 49 500 46.7C533.3 44.3 566.7 46.7 600 45.7C633.3 44.7 666.7 40.3 700 39.5C733.3 38.7 766.7 41.3 800 43.8C833.3 46.3 866.7 48.7 883.3 49.8L900 51L900 151L883.3 151C866.7 151 833.3 151 800 151C766.7 151 733.3 151 700 151C666.7 151 633.3 151 600 151C566.7 151 533.3 151 500 151C466.7 151 433.3 151 400 151C366.7 151 333.3 151 300 151C266.7 151 233.3 151 200 151C166.7 151 133.3 151 100 151C66.7 151 33.3 151 16.7 151L0 151Z" fill="#ffaf3c"></path><path d="M0 77L16.7 74.2C33.3 71.3 66.7 65.7 100 62.2C133.3 58.7 166.7 57.3 200 56.5C233.3 55.7 266.7 55.3 300 56.5C333.3 57.7 366.7 60.3 400 63.8C433.3 67.3 466.7 71.7 500 71.8C533.3 72 566.7 68 600 68.7C633.3 69.3 666.7 74.7 700 73C733.3 71.3 766.7 62.7 800 59.8C833.3 57 866.7 60 883.3 61.5L900 63L900 151L883.3 151C866.7 151 833.3 151 800 151C766.7 151 733.3 151 700 151C666.7 151 633.3 151 600 151C566.7 151 533.3 151 500 151C466.7 151 433.3 151 400 151C366.7 151 333.3 151 300 151C266.7 151 233.3 151 200 151C166.7 151 133.3 151 100 151C66.7 151 33.3 151 16.7 151L0 151Z" fill="#ff7d4e"></path><path d="M0 88L16.7 86.7C33.3 85.3 66.7 82.7 100 83.2C133.3 83.7 166.7 87.3 200 87.5C233.3 87.7 266.7 84.3 300 83C333.3 81.7 366.7 82.3 400 80.5C433.3 78.7 466.7 74.3 500 72C533.3 69.7 566.7 69.3 600 71.2C633.3 73 666.7 77 700 79.7C733.3 82.3 766.7 83.7 800 83.5C833.3 83.3 866.7 81.7 883.3 80.8L900 80L900 151L883.3 151C866.7 151 833.3 151 800 151C766.7 151 733.3 151 700 151C666.7 151 633.3 151 600 151C566.7 151 533.3 151 500 151C466.7 151 433.3 151 400 151C366.7 151 333.3 151 300 151C266.7 151 233.3 151 200 151C166.7 151 133.3 151 100 151C66.7 151 33.3 151 16.7 151L0 151Z" fill="#ff4c68"></path><path d="M0 107L16.7 105.7C33.3 104.3 66.7 101.7 100 98.7C133.3 95.7 166.7 92.3 200 94.7C233.3 97 266.7 105 300 104.3C333.3 103.7 366.7 94.3 400 93.3C433.3 92.3 466.7 99.7 500 103.8C533.3 108 566.7 109 600 108.2C633.3 107.3 666.7 104.7 700 103.7C733.3 102.7 766.7 103.3 800 104.5C833.3 105.7 866.7 107.3 883.3 108.2L900 109L900 151L883.3 151C866.7 151 833.3 151 800 151C766.7 151 733.3 151 700 151C666.7 151 633.3 151 600 151C566.7 151 533.3 151 500 151C466.7 151 433.3 151 400 151C366.7 151 333.3 151 300 151C266.7 151 233.3 151 200 151C166.7 151 133.3 151 100 151C66.7 151 33.3 151 16.7 151L0 151Z" fill="#f9148c"></path><path d="M0 124L16.7 120.3C33.3 116.7 66.7 109.3 100 108.3C133.3 107.3 166.7 112.7 200 113.2C233.3 113.7 266.7 109.3 300 108.2C333.3 107 366.7 109 400 110.8C433.3 112.7 466.7 114.3 500 115.7C533.3 117 566.7 118 600 115.8C633.3 113.7 666.7 108.3 700 107.8C733.3 107.3 766.7 111.7 800 114.3C833.3 117 866.7 118 883.3 118.5L900 119L900 151L883.3 151C866.7 151 833.3 151 800 151C766.7 151 733.3 151 700 151C666.7 151 633.3 151 600 151C566.7 151 533.3 151 500 151C466.7 151 433.3 151 400 151C366.7 151 333.3 151 300 151C266.7 151 233.3 151 200 151C166.7 151 133.3 151 100 151C66.7 151 33.3 151 16.7 151L0 151Z" fill="#db00ba"></path><path d="M0 141L16.7 140.2C33.3 139.3 66.7 137.7 100 136.5C133.3 135.3 166.7 134.7 200 134.2C233.3 133.7 266.7 133.3 300 131.7C333.3 130 366.7 127 400 126.7C433.3 126.3 466.7 128.7 500 131.3C533.3 134 566.7 137 600 135.3C633.3 133.7 666.7 127.3 700 125.5C733.3 123.7 766.7 126.3 800 127.8C833.3 129.3 866.7 129.7 883.3 129.8L900 130L900 151L883.3 151C866.7 151 833.3 151 800 151C766.7 151 733.3 151 700 151C666.7 151 633.3 151 600 151C566.7 151 533.3 151 500 151C466.7 151 433.3 151 400 151C366.7 151 333.3 151 300 151C266.7 151 233.3 151 200 151C166.7 151 133.3 151 100 151C66.7 151 33.3 151 16.7 151L0 151Z" fill="#9333ea"></path></svg>