<svg id="visual" viewBox="0 0 900 150" width="900" height="150" xmlns="http://www.w3.org/2000/svg" xmlns:xlink="http://www.w3.org/1999/xlink" version="1.1"><path d="M0 68L13.7 62.5C27.3 57 54.7 46 82 46.3C109.3 46.7 136.7 58.3 163.8 59.2C191 60 218 50 245.2 46.2C272.3 42.3 299.7 44.7 327 44.7C354.3 44.7 381.7 42.3 409 42.8C436.3 43.3 463.7 46.7 491 52.2C518.3 57.7 545.7 65.3 573 69.5C600.3 73.7 627.7 74.3 654.8 76C682 77.7 709 80.3 736.2 75.8C763.3 71.3 790.7 59.7 818 52.2C845.3 44.7 872.7 41.3 886.3 39.7L900 38L900 151L886.3 151C872.7 151 845.3 151 818 151C790.7 151 763.3 151 736.2 151C709 151 682 151 654.8 151C627.7 151 600.3 151 573 151C545.7 151 518.3 151 491 151C463.7 151 436.3 151 409 151C381.7 151 354.3 151 327 151C299.7 151 272.3 151 245.2 151C218 151 191 151 163.8 151C136.7 151 109.3 151 82 151C54.7 151 27.3 151 13.7 151L0 151Z" fill="#fde047"></path><path d="M0 71L13.7 68.5C27.3 66 54.7 61 82 64.2C109.3 67.3 136.7 78.7 163.8 76.3C191 74 218 58 245.2 56.7C272.3 55.3 299.7 68.7 327 74C354.3 79.3 381.7 76.7 409 73.8C436.3 71 463.7 68 491 63.5C518.3 59 545.7 53 573 57.3C600.3 61.7 627.7 76.3 654.8 77.2C682 78 709 65 736.2 57.8C763.3 50.7 790.7 49.3 818 50.8C845.3 52.3 872.7 56.7 886.3 58.8L900 61L900 151L886.3 151C872.7 151 845.3 151 818 151C790.7 151 763.3 151 736.2 151C709 151 682 151 654.8 151C627.7 151 600.3 151 573 151C545.7 151 518.3 151 491 151C463.7 151 436.3 151 409 151C381.7 151 354.3 151 327 151C299.7 151 272.3 151 245.2 151C218 151 191 151 163.8 151C136.7 151 109.3 151 82 151C54.7 151 27.3 151 13.7 151L0 151Z" fill="#ffa53e"></path><path d="M0 98L13.7 98.3C27.3 98.7 54.7 99.3 82 94.2C109.3 89 136.7 78 163.8 75.7C191 73.3 218 79.7 245.2 80.8C272.3 82 299.7 78 327 76.2C354.3 74.3 381.7 74.7 409 79.7C436.3 84.7 463.7 94.3 491 93.2C518.3 92 545.7 80 573 77.7C600.3 75.3 627.7 82.7 654.8 85.8C682 89 709 88 736.2 84.5C763.3 81 790.7 75 818 71C845.3 67 872.7 65 886.3 64L900 63L900 151L886.3 151C872.7 151 845.3 151 818 151C790.7 151 763.3 151 736.2 151C709 151 682 151 654.8 151C627.7 151 600.3 151 573 151C545.7 151 518.3 151 491 151C463.7 151 436.3 151 409 151C381.7 151 354.3 151 327 151C299.7 151 272.3 151 245.2 151C218 151 191 151 163.8 151C136.7 151 109.3 151 82 151C54.7 151 27.3 151 13.7 151L0 151Z" fill="#ff6958"></path><path d="M0 87L13.7 91.5C27.3 96 54.7 105 82 108.5C109.3 112 136.7 110 163.8 104.7C191 99.3 218 90.7 245.2 86.8C272.3 83 299.7 84 327 87.5C354.3 91 381.7 97 409 97.5C436.3 98 463.7 93 491 89.5C518.3 86 545.7 84 573 87.3C600.3 90.7 627.7 99.3 654.8 103C682 106.7 709 105.3 736.2 102.2C763.3 99 790.7 94 818 89.8C845.3 85.7 872.7 82.3 886.3 80.7L900 79L900 151L886.3 151C872.7 151 845.3 151 818 151C790.7 151 763.3 151 736.2 151C709 151 682 151 654.8 151C627.7 151 600.3 151 573 151C545.7 151 518.3 151 491 151C463.7 151 436.3 151 409 151C381.7 151 354.3 151 327 151C299.7 151 272.3 151 245.2 151C218 151 191 151 163.8 151C136.7 151 109.3 151 82 151C54.7 151 27.3 151 13.7 151L0 151Z" fill="#fe2e7c"></path><path d="M0 98L13.7 98.7C27.3 99.3 54.7 100.7 82 105.8C109.3 111 136.7 120 163.8 121.5C191 123 218 117 245.2 112.8C272.3 108.7 299.7 106.3 327 107.7C354.3 109 381.7 114 409 116C436.3 118 463.7 117 491 116.3C518.3 115.7 545.7 115.3 573 116.2C600.3 117 627.7 119 654.8 119.5C682 120 709 119 736.2 118.5C763.3 118 790.7 118 818 118.3C845.3 118.7 872.7 119.3 886.3 119.7L900 120L900 151L886.3 151C872.7 151 845.3 151 818 151C790.7 151 763.3 151 736.2 151C709 151 682 151 654.8 151C627.7 151 600.3 151 573 151C545.7 151 518.3 151 491 151C463.7 151 436.3 151 409 151C381.7 151 354.3 151 327 151C299.7 151 272.3 151 245.2 151C218 151 191 151 163.8 151C136.7 151 109.3 151 82 151C54.7 151 27.3 151 13.7 151L0 151Z" fill="#e300b0"></path><path d="M0 128L13.7 129.8C27.3 131.7 54.7 135.3 82 133.7C109.3 132 136.7 125 163.8 121.2C191 117.3 218 116.7 245.2 116.3C272.3 116 299.7 116 327 118.3C354.3 120.7 381.7 125.3 409 128.5C436.3 131.7 463.7 133.3 491 131.2C518.3 129 545.7 123 573 123C600.3 123 627.7 129 654.8 128.7C682 128.3 709 121.7 736.2 119.2C763.3 116.7 790.7 118.3 818 119.3C845.3 120.3 872.7 120.7 886.3 120.8L900 121L900 151L886.3 151C872.7 151 845.3 151 818 151C790.7 151 763.3 151 736.2 151C709 151 682 151 654.8 151C627.7 151 600.3 151 573 151C545.7 151 518.3 151 491 151C463.7 151 436.3 151 409 151C381.7 151 354.3 151 327 151C299.7 151 272.3 151 245.2 151C218 151 191 151 163.8 151C136.7 151 109.3 151 82 151C54.7 151 27.3 151 13.7 151L0 151Z" fill="#9333ea"></path></svg>