<svg id="visual" viewBox="0 0 900 75" width="900" height="75" xmlns="http://www.w3.org/2000/svg" xmlns:xlink="http://www.w3.org/1999/xlink" version="1.1"><rect x="0" y="0" width="900" height="75" fill="#eab308"></rect><path d="M0 46L8.8 44C17.7 42 35.3 38 53 39.8C70.7 41.7 88.3 49.3 106 49.2C123.7 49 141.3 41 159 37.2C176.7 33.3 194.3 33.7 212 33.7C229.7 33.7 247.3 33.3 265 37.3C282.7 41.3 300.3 49.7 318 50.5C335.7 51.3 353.3 44.7 371 43.5C388.7 42.3 406.3 46.7 423.8 49.5C441.3 52.3 458.7 53.7 476.2 51.7C493.7 49.7 511.3 44.3 529 41.8C546.7 39.3 564.3 39.7 582 38C599.7 36.3 617.3 32.7 635 31.2C652.7 29.7 670.3 30.3 688 33C705.7 35.7 723.3 40.3 741 45C758.7 49.7 776.3 54.3 794 52C811.7 49.7 829.3 40.3 847 39.7C864.7 39 882.3 47 891.2 51L900 55L900 0L891.2 0C882.3 0 864.7 0 847 0C829.3 0 811.7 0 794 0C776.3 0 758.7 0 741 0C723.3 0 705.7 0 688 0C670.3 0 652.7 0 635 0C617.3 0 599.7 0 582 0C564.3 0 546.7 0 529 0C511.3 0 493.7 0 476.2 0C458.7 0 441.3 0 423.8 0C406.3 0 388.7 0 371 0C353.3 0 335.7 0 318 0C300.3 0 282.7 0 265 0C247.3 0 229.7 0 212 0C194.3 0 176.7 0 159 0C141.3 0 123.7 0 106 0C88.3 0 70.7 0 53 0C35.3 0 17.7 0 8.8 0L0 0Z" fill="#eab308"></path><path d="M0 37L8.8 38.8C17.7 40.7 35.3 44.3 53 43.3C70.7 42.3 88.3 36.7 106 37C123.7 37.3 141.3 43.7 159 44.8C176.7 46 194.3 42 212 41.7C229.7 41.3 247.3 44.7 265 42.5C282.7 40.3 300.3 32.7 318 30.8C335.7 29 353.3 33 371 35.5C388.7 38 406.3 39 423.8 40.7C441.3 42.3 458.7 44.7 476.2 43.5C493.7 42.3 511.3 37.7 529 37.8C546.7 38 564.3 43 582 42.5C599.7 42 617.3 36 635 34.5C652.7 33 670.3 36 688 36.3C705.7 36.7 723.3 34.3 741 31.8C758.7 29.3 776.3 26.7 794 27C811.7 27.3 829.3 30.7 847 31.8C864.7 33 882.3 32 891.2 31.5L900 31L900 0L891.2 0C882.3 0 864.7 0 847 0C829.3 0 811.7 0 794 0C776.3 0 758.7 0 741 0C723.3 0 705.7 0 688 0C670.3 0 652.7 0 635 0C617.3 0 599.7 0 582 0C564.3 0 546.7 0 529 0C511.3 0 493.7 0 476.2 0C458.7 0 441.3 0 423.8 0C406.3 0 388.7 0 371 0C353.3 0 335.7 0 318 0C300.3 0 282.7 0 265 0C247.3 0 229.7 0 212 0C194.3 0 176.7 0 159 0C141.3 0 123.7 0 106 0C88.3 0 70.7 0 53 0C35.3 0 17.7 0 8.8 0L0 0Z" fill="#f89c25"></path><path d="M0 44L8.8 43.2C17.7 42.3 35.3 40.7 53 37.5C70.7 34.3 88.3 29.7 106 29.7C123.7 29.7 141.3 34.3 159 37.2C176.7 40 194.3 41 212 42.2C229.7 43.3 247.3 44.7 265 43.3C282.7 42 300.3 38 318 37.7C335.7 37.3 353.3 40.7 371 42.7C388.7 44.7 406.3 45.3 423.8 44.3C441.3 43.3 458.7 40.7 476.2 36.5C493.7 32.3 511.3 26.7 529 26.5C546.7 26.3 564.3 31.7 582 35.5C599.7 39.3 617.3 41.7 635 39.2C652.7 36.7 670.3 29.3 688 27.5C705.7 25.7 723.3 29.3 741 30.7C758.7 32 776.3 31 794 31.5C811.7 32 829.3 34 847 33C864.7 32 882.3 28 891.2 26L900 24L900 0L891.2 0C882.3 0 864.7 0 847 0C829.3 0 811.7 0 794 0C776.3 0 758.7 0 741 0C723.3 0 705.7 0 688 0C670.3 0 652.7 0 635 0C617.3 0 599.7 0 582 0C564.3 0 546.7 0 529 0C511.3 0 493.7 0 476.2 0C458.7 0 441.3 0 423.8 0C406.3 0 388.7 0 371 0C353.3 0 335.7 0 318 0C300.3 0 282.7 0 265 0C247.3 0 229.7 0 212 0C194.3 0 176.7 0 159 0C141.3 0 123.7 0 106 0C88.3 0 70.7 0 53 0C35.3 0 17.7 0 8.8 0L0 0Z" fill="#ff843c"></path><path d="M0 29L8.8 29.7C17.7 30.3 35.3 31.7 53 31C70.7 30.3 88.3 27.7 106 24.8C123.7 22 141.3 19 159 20.3C176.7 21.7 194.3 27.3 212 29C229.7 30.7 247.3 28.3 265 28.7C282.7 29 300.3 32 318 33C335.7 34 353.3 33 371 30.5C388.7 28 406.3 24 423.8 24.7C441.3 25.3 458.7 30.7 476.2 33.2C493.7 35.7 511.3 35.3 529 33.2C546.7 31 564.3 27 582 26.7C599.7 26.3 617.3 29.7 635 29C652.7 28.3 670.3 23.7 688 24.3C705.7 25 723.3 31 741 30.5C758.7 30 776.3 23 794 21C811.7 19 829.3 22 847 23.8C864.7 25.7 882.3 26.3 891.2 26.7L900 27L900 0L891.2 0C882.3 0 864.7 0 847 0C829.3 0 811.7 0 794 0C776.3 0 758.7 0 741 0C723.3 0 705.7 0 688 0C670.3 0 652.7 0 635 0C617.3 0 599.7 0 582 0C564.3 0 546.7 0 529 0C511.3 0 493.7 0 476.2 0C458.7 0 441.3 0 423.8 0C406.3 0 388.7 0 371 0C353.3 0 335.7 0 318 0C300.3 0 282.7 0 265 0C247.3 0 229.7 0 212 0C194.3 0 176.7 0 159 0C141.3 0 123.7 0 106 0C88.3 0 70.7 0 53 0C35.3 0 17.7 0 8.8 0L0 0Z" fill="#ff6f52"></path><path d="M0 22L8.8 22.5C17.7 23 35.3 24 53 22.5C70.7 21 88.3 17 106 15.3C123.7 13.7 141.3 14.3 159 14.2C176.7 14 194.3 13 212 14C229.7 15 247.3 18 265 20.8C282.7 23.7 300.3 26.3 318 25.7C335.7 25 353.3 21 371 20.8C388.7 20.7 406.3 24.3 423.8 24.2C441.3 24 458.7 20 476.2 20.2C493.7 20.3 511.3 24.7 529 24.5C546.7 24.3 564.3 19.7 582 17.8C599.7 16 617.3 17 635 18.8C652.7 20.7 670.3 23.3 688 22.7C705.7 22 723.3 18 741 15.8C758.7 13.7 776.3 13.3 794 15.7C811.7 18 829.3 23 847 25.3C864.7 27.7 882.3 27.3 891.2 27.2L900 27L900 0L891.2 0C882.3 0 864.7 0 847 0C829.3 0 811.7 0 794 0C776.3 0 758.7 0 741 0C723.3 0 705.7 0 688 0C670.3 0 652.7 0 635 0C617.3 0 599.7 0 582 0C564.3 0 546.7 0 529 0C511.3 0 493.7 0 476.2 0C458.7 0 441.3 0 423.8 0C406.3 0 388.7 0 371 0C353.3 0 335.7 0 318 0C300.3 0 282.7 0 265 0C247.3 0 229.7 0 212 0C194.3 0 176.7 0 159 0C141.3 0 123.7 0 106 0C88.3 0 70.7 0 53 0C35.3 0 17.7 0 8.8 0L0 0Z" fill="#ff5c68"></path><path d="M0 9L8.8 9.2C17.7 9.3 35.3 9.7 53 10C70.7 10.3 88.3 10.7 106 11.5C123.7 12.3 141.3 13.7 159 13.8C176.7 14 194.3 13 212 13C229.7 13 247.3 14 265 15.5C282.7 17 300.3 19 318 19.3C335.7 19.7 353.3 18.3 371 17.5C388.7 16.7 406.3 16.3 423.8 15.5C441.3 14.7 458.7 13.3 476.2 12.5C493.7 11.7 511.3 11.3 529 11.2C546.7 11 564.3 11 582 12.3C599.7 13.7 617.3 16.3 635 17.2C652.7 18 670.3 17 688 15.8C705.7 14.7 723.3 13.3 741 12.3C758.7 11.3 776.3 10.7 794 9.8C811.7 9 829.3 8 847 9.3C864.7 10.7 882.3 14.3 891.2 16.2L900 18L900 0L891.2 0C882.3 0 864.7 0 847 0C829.3 0 811.7 0 794 0C776.3 0 758.7 0 741 0C723.3 0 705.7 0 688 0C670.3 0 652.7 0 635 0C617.3 0 599.7 0 582 0C564.3 0 546.7 0 529 0C511.3 0 493.7 0 476.2 0C458.7 0 441.3 0 423.8 0C406.3 0 388.7 0 371 0C353.3 0 335.7 0 318 0C300.3 0 282.7 0 265 0C247.3 0 229.7 0 212 0C194.3 0 176.7 0 159 0C141.3 0 123.7 0 106 0C88.3 0 70.7 0 53 0C35.3 0 17.7 0 8.8 0L0 0Z" fill="#fa4e80"></path><path d="M0 6L8.8 6.7C17.7 7.3 35.3 8.7 53 9.2C70.7 9.7 88.3 9.3 106 9.5C123.7 9.7 141.3 10.3 159 9.5C176.7 8.7 194.3 6.3 212 5C229.7 3.7 247.3 3.3 265 4C282.7 4.7 300.3 6.3 318 7.2C335.7 8 353.3 8 371 8C388.7 8 406.3 8 423.8 7.2C441.3 6.3 458.7 4.7 476.2 4.2C493.7 3.7 511.3 4.3 529 5C546.7 5.7 564.3 6.3 582 7.2C599.7 8 617.3 9 635 9C652.7 9 670.3 8 688 7.8C705.7 7.7 723.3 8.3 741 8.2C758.7 8 776.3 7 794 6.2C811.7 5.3 829.3 4.7 847 4.7C864.7 4.7 882.3 5.3 891.2 5.7L900 6L900 0L891.2 0C882.3 0 864.7 0 847 0C829.3 0 811.7 0 794 0C776.3 0 758.7 0 741 0C723.3 0 705.7 0 688 0C670.3 0 652.7 0 635 0C617.3 0 599.7 0 582 0C564.3 0 546.7 0 529 0C511.3 0 493.7 0 476.2 0C458.7 0 441.3 0 423.8 0C406.3 0 388.7 0 371 0C353.3 0 335.7 0 318 0C300.3 0 282.7 0 265 0C247.3 0 229.7 0 212 0C194.3 0 176.7 0 159 0C141.3 0 123.7 0 106 0C88.3 0 70.7 0 53 0C35.3 0 17.7 0 8.8 0L0 0Z" fill="#ec4899"></path></svg>