<svg id="visual" viewBox="0 0 900 75" width="900" height="75" xmlns="http://www.w3.org/2000/svg" xmlns:xlink="http://www.w3.org/1999/xlink" version="1.1"><path d="M0 11L9.3 16.5C18.7 22 37.3 33 56.2 36.5C75 40 94 36 112.8 35.5C131.7 35 150.3 38 169 40.7C187.7 43.3 206.3 45.7 225 40.8C243.7 36 262.3 24 281.2 18C300 12 319 12 337.8 11.5C356.7 11 375.3 10 394 16.7C412.7 23.3 431.3 37.7 450 37.7C468.7 37.7 487.3 23.3 506.2 19.5C525 15.7 544 22.3 562.8 26.2C581.7 30 600.3 31 619 32C637.7 33 656.3 34 675 35.5C693.7 37 712.3 39 731.2 33.8C750 28.7 769 16.3 787.8 12C806.7 7.7 825.3 11.3 844 19.2C862.7 27 881.3 39 890.7 45L900 51L900 76L890.7 76C881.3 76 862.7 76 844 76C825.3 76 806.7 76 787.8 76C769 76 750 76 731.2 76C712.3 76 693.7 76 675 76C656.3 76 637.7 76 619 76C600.3 76 581.7 76 562.8 76C544 76 525 76 506.2 76C487.3 76 468.7 76 450 76C431.3 76 412.7 76 394 76C375.3 76 356.7 76 337.8 76C319 76 300 76 281.2 76C262.3 76 243.7 76 225 76C206.3 76 187.7 76 169 76C150.3 76 131.7 76 112.8 76C94 76 75 76 56.2 76C37.3 76 18.7 76 9.3 76L0 76Z" fill="#ec4899"></path><path d="M0 57L9.3 56.3C18.7 55.7 37.3 54.3 56.2 48.8C75 43.3 94 33.7 112.8 30.7C131.7 27.7 150.3 31.3 169 34C187.7 36.7 206.3 38.3 225 37.3C243.7 36.3 262.3 32.7 281.2 30.2C300 27.7 319 26.3 337.8 31C356.7 35.7 375.3 46.3 394 50.8C412.7 55.3 431.3 53.7 450 51C468.7 48.3 487.3 44.7 506.2 43.5C525 42.3 544 43.7 562.8 44.7C581.7 45.7 600.3 46.3 619 43.8C637.7 41.3 656.3 35.7 675 31.3C693.7 27 712.3 24 731.2 28.7C750 33.3 769 45.7 787.8 50.7C806.7 55.7 825.3 53.3 844 48.7C862.7 44 881.3 37 890.7 33.5L900 30L900 76L890.7 76C881.3 76 862.7 76 844 76C825.3 76 806.7 76 787.8 76C769 76 750 76 731.2 76C712.3 76 693.7 76 675 76C656.3 76 637.7 76 619 76C600.3 76 581.7 76 562.8 76C544 76 525 76 506.2 76C487.3 76 468.7 76 450 76C431.3 76 412.7 76 394 76C375.3 76 356.7 76 337.8 76C319 76 300 76 281.2 76C262.3 76 243.7 76 225 76C206.3 76 187.7 76 169 76C150.3 76 131.7 76 112.8 76C94 76 75 76 56.2 76C37.3 76 18.7 76 9.3 76L0 76Z" fill="#ff5c68"></path><path d="M0 59L9.3 55.8C18.7 52.7 37.3 46.3 56.2 46.5C75 46.7 94 53.3 112.8 52.7C131.7 52 150.3 44 169 39.7C187.7 35.3 206.3 34.7 225 37.2C243.7 39.7 262.3 45.3 281.2 49.7C300 54 319 57 337.8 55.5C356.7 54 375.3 48 394 45.7C412.7 43.3 431.3 44.7 450 48.3C468.7 52 487.3 58 506.2 56.8C525 55.7 544 47.3 562.8 43.8C581.7 40.3 600.3 41.7 619 41.5C637.7 41.3 656.3 39.7 675 38.7C693.7 37.7 712.3 37.3 731.2 41C750 44.7 769 52.3 787.8 55C806.7 57.7 825.3 55.3 844 55C862.7 54.7 881.3 56.3 890.7 57.2L900 58L900 76L890.7 76C881.3 76 862.7 76 844 76C825.3 76 806.7 76 787.8 76C769 76 750 76 731.2 76C712.3 76 693.7 76 675 76C656.3 76 637.7 76 619 76C600.3 76 581.7 76 562.8 76C544 76 525 76 506.2 76C487.3 76 468.7 76 450 76C431.3 76 412.7 76 394 76C375.3 76 356.7 76 337.8 76C319 76 300 76 281.2 76C262.3 76 243.7 76 225 76C206.3 76 187.7 76 169 76C150.3 76 131.7 76 112.8 76C94 76 75 76 56.2 76C37.3 76 18.7 76 9.3 76L0 76Z" fill="#ff843c"></path><path d="M0 69L9.3 67C18.7 65 37.3 61 56.2 60.8C75 60.7 94 64.3 112.8 65.7C131.7 67 150.3 66 169 64.8C187.7 63.7 206.3 62.3 225 60.3C243.7 58.3 262.3 55.7 281.2 53.3C300 51 319 49 337.8 48.8C356.7 48.7 375.3 50.3 394 50.2C412.7 50 431.3 48 450 47.2C468.7 46.3 487.3 46.7 506.2 47.5C525 48.3 544 49.7 562.8 51C581.7 52.3 600.3 53.7 619 55.8C637.7 58 656.3 61 675 63.8C693.7 66.7 712.3 69.3 731.2 67.7C750 66 769 60 787.8 57C806.7 54 825.3 54 844 53.3C862.7 52.7 881.3 51.3 890.7 50.7L900 50L900 76L890.7 76C881.3 76 862.7 76 844 76C825.3 76 806.7 76 787.8 76C769 76 750 76 731.2 76C712.3 76 693.7 76 675 76C656.3 76 637.7 76 619 76C600.3 76 581.7 76 562.8 76C544 76 525 76 506.2 76C487.3 76 468.7 76 450 76C431.3 76 412.7 76 394 76C375.3 76 356.7 76 337.8 76C319 76 300 76 281.2 76C262.3 76 243.7 76 225 76C206.3 76 187.7 76 169 76C150.3 76 131.7 76 112.8 76C94 76 75 76 56.2 76C37.3 76 18.7 76 9.3 76L0 76Z" fill="#eab308"></path></svg>